<?xml version="1.0" encoding="UTF-8"?>
<svg id="uuid-f6cce254-0800-44da-a41c-fab322c2f8a2" data-name="uuid-62801537-9a44-40ec-b566-a2644ffddb11" xmlns="http://www.w3.org/2000/svg" viewBox="0 0 98.42 98.45">
  <defs>
    <style>
      .uuid-494a69f9-36e6-4257-b7c4-cf1025e1ab82 {
        fill: #334630;
      }
    </style>
  </defs>
  <path class="uuid-494a69f9-36e6-4257-b7c4-cf1025e1ab82" d="M21.62,8.5c6.24-4.24,13.06-6.86,20.47-7.97,3.28-.49,6.58-.64,9.89-.44,6.19.37,12.14,1.78,17.77,4.4,4.55,2.11,8.7,4.83,12.43,8.2,3.74,3.38,6.91,7.23,9.46,11.58,3.27,5.57,5.4,11.53,6.29,17.93.24,1.73.38,3.47.45,5.22.25,5.75-.53,11.35-2.28,16.82-2.07,6.47-5.36,12.27-9.84,17.39-3.96,4.53-8.6,8.21-13.9,11.05-4.88,2.6-10.05,4.32-15.52,5.18-3.32.52-6.67.71-10.02.53-4.07-.21-8.07-.89-11.97-2.08-6.79-2.08-12.85-5.47-18.16-10.16-4.65-4.11-8.4-8.92-11.24-14.45-2.4-4.69-4.04-9.62-4.82-14.82-.27-1.77-.37-3.57-.52-5.35-.08-.94-.12-1.89-.1-2.83.12-6.37,1.33-12.52,3.8-18.41,1.92-4.58,4.47-8.79,7.67-12.6,2.95-3.51,6.3-6.58,10.14-9.17M44.56,28.09c-5.9,0-11.81.03-17.71-.02-1.43-.01-2.62,1.12-2.61,2.57.02,2.43,0,4.87,0,7.3,0,.77.28,1.43.85,1.95.17.16.34.33.52.48,5,4.39,10,8.78,15.03,13.15.53.46.75.96.76,1.65,0,1.6.06,3.21.09,4.81.05,3.04.1,6.09.14,9.13.03,2.38.02,4.77.05,7.15,0,.71.05,1.42.12,2.12.06.64.38,1.17.9,1.55.9.66,1.86.71,2.86.21,3.1-1.56,6.2-3.13,9.32-4.65,1.27-.62,1.85-1.52,1.84-2.96-.04-5.81,0-11.62-.03-17.43,0-.65.2-1.1.69-1.52,3.88-3.3,7.75-6.63,11.62-9.95,1.43-1.23,2.86-2.46,4.29-3.7.67-.58.95-1.33.94-2.2v-4.75c0-.78.02-1.56,0-2.34-.03-1.01-.45-1.82-1.36-2.33-.46-.26-.95-.24-1.45-.24h-26.85v.02h-.01Z"/>
  <path class="uuid-494a69f9-36e6-4257-b7c4-cf1025e1ab82" d="M46.36,55.72v-2.48c0-.93-.36-1.67-1.06-2.29-5.15-4.51-10.29-9.03-15.44-13.53-.4-.35-.57-.71-.55-1.22.03-.73,0-1.46,0-2.2,0-.91.04-.93.98-.94h37.54c1.42,0,1.34-.08,1.34,1.36,0,.59-.03,1.18,0,1.77.03.53-.18.89-.57,1.22-1.69,1.44-3.37,2.89-5.05,4.33-3.53,3.03-7.06,6.06-10.6,9.07-.85.72-1.25,1.56-1.24,2.71.04,5.55.02,11.1.02,16.65v.78c0,.32-.12.55-.4.69-1.43.72-2.87,1.44-4.31,2.15-.05.03-.14,0-.29,0-.03-.26-.09-.53-.09-.8-.02-1.18-.03-2.36-.04-3.54-.03-2.48-.07-4.96-.1-7.43-.02-1.7-.03-3.4-.05-5.1,0-.38-.06-.75-.09-1.2h0Z"/>
</svg>