<?xml version="1.0" encoding="UTF-8"?>
<svg id="uuid-a4e65432-560a-45d3-9275-259985fd38c6" data-name="Layer 1" xmlns="http://www.w3.org/2000/svg" viewBox="0 0 564.39 98.45">
  <defs>
    <style>
      .uuid-58e6156a-97f0-4deb-9397-7f18b8b427fc {
        fill: #334630;
      }
    </style>
  </defs>
  <path class="uuid-58e6156a-97f0-4deb-9397-7f18b8b427fc" d="M21.62,8.5c6.24-4.24,13.06-6.86,20.47-7.97,3.28-.49,6.58-.64,9.89-.44,6.19.37,12.14,1.78,17.77,4.4,4.55,2.11,8.7,4.83,12.43,8.2,3.74,3.38,6.91,7.23,9.46,11.58,3.27,5.57,5.4,11.53,6.29,17.93.24,1.73.38,3.47.45,5.22.25,5.75-.53,11.35-2.28,16.82-2.07,6.47-5.36,12.27-9.84,17.39-3.96,4.53-8.6,8.21-13.9,11.05-4.88,2.6-10.05,4.32-15.52,5.18-3.32.52-6.67.71-10.02.53-4.07-.21-8.07-.89-11.97-2.08-6.79-2.08-12.85-5.47-18.16-10.16-4.65-4.11-8.4-8.92-11.24-14.45-2.4-4.69-4.04-9.62-4.82-14.82-.27-1.77-.37-3.57-.52-5.35-.08-.94-.12-1.89-.1-2.83.12-6.37,1.33-12.52,3.8-18.41,1.92-4.58,4.47-8.79,7.67-12.6,2.95-3.51,6.3-6.58,10.14-9.17M44.56,28.09c-5.9,0-11.81.03-17.71-.02-1.43-.01-2.62,1.12-2.61,2.57.02,2.43,0,4.87,0,7.3,0,.77.28,1.43.85,1.95.17.16.34.33.52.48,5,4.39,10,8.78,15.03,13.15.53.46.75.96.76,1.65,0,1.6.06,3.21.09,4.81.05,3.04.1,6.09.14,9.13.03,2.38.02,4.77.05,7.15,0,.71.05,1.42.12,2.12.06.64.38,1.17.9,1.55.9.66,1.86.71,2.86.21,3.1-1.56,6.2-3.13,9.32-4.65,1.27-.62,1.85-1.52,1.84-2.96-.04-5.81,0-11.62-.03-17.43,0-.65.2-1.1.69-1.52,3.88-3.3,7.75-6.63,11.62-9.95,1.43-1.23,2.86-2.46,4.29-3.7.67-.58.95-1.33.94-2.2v-4.75c0-.78.02-1.56,0-2.34-.03-1.01-.45-1.82-1.36-2.33-.46-.26-.95-.24-1.45-.24h-26.85v.02Z"/>
  <path class="uuid-58e6156a-97f0-4deb-9397-7f18b8b427fc" d="M142.83,59.15v-6.94c-.02-.8-.07-.87-.84-.87h-14.74c-.81,0-.86.06-.86.92v14.81c-.03.49-.12.57-.59.6-.28.02-.57.01-.85.01h-5.1c-.24,0-.48.02-.7-.04-.15-.04-.31-.21-.35-.36-.07-.22-.04-.47-.04-.7V30.45c0-1.06.01-1.07,1.06-1.07h5.67c.87,0,.92.05.92.93v13.46c0,1.37-.11,1.34,1.36,1.34h13.96c1.11,0,1.12,0,1.12-1.1v-13.46c0-1.16,0-1.17,1.18-1.17h5.45c1,0,1.02.02,1.02,1.05v35.99c0,1.38-.02,1.27-1.29,1.27h-5.24c-.19,0-.38,0-.57-.01-.44-.04-.51-.11-.54-.58-.02-.23,0-.47,0-.71v-7.23h-.02Z"/>
  <path class="uuid-58e6156a-97f0-4deb-9397-7f18b8b427fc" d="M176.59,66.39c-1.84,1.11-3.8,1.62-5.89,1.73-2.12.11-4.14-.21-6.07-1.05-2.57-1.12-4.55-2.93-6.02-5.3-1.66-2.68-2.41-5.61-2.46-8.75-.03-2.11.1-4.2.74-6.23.84-2.67,2.2-5,4.35-6.84,2.07-1.77,4.46-2.8,7.17-3.08,1.63-.17,3.25-.12,4.85.27,2.19.53,4.06,1.63,5.67,3.19.3.29.59.6.99,1,.04-.31.09-.51.09-.7,0-.85,0-1.7,0-2.55,0-.69.09-.77.79-.78h6.23c.69,0,.75.08.77.79v28.2c0,.28,0,.57,0,.85,0,.35-.19.51-.53.52-.14,0-.28.01-.42.01h-5.88c-.88,0-.93-.06-.94-.91v-2.41c0-.23-.02-.46-.04-.86-.61.61-1.08,1.15-1.62,1.62-.53.46-1.13.84-1.75,1.28M165.24,47.32c-1.54,2.8-1.69,5.72-.65,8.69.82,2.35,2.4,4.06,4.76,4.93,3.82,1.41,8.11-.37,9.8-4.11,1.21-2.68,1.24-5.49.21-8.22-1.46-3.84-5.19-5.78-9.28-4.88-2.09.46-3.65,1.7-4.85,3.58h0Z"/>
  <path class="uuid-58e6156a-97f0-4deb-9397-7f18b8b427fc" d="M360,56.58c3.23,3.65,6.47,7.23,9.75,10.96-.33.06-.5.13-.67.13-2.88,0-5.76,0-8.64.01-.5,0-.77-.27-1.04-.61-1.72-2.16-3.44-4.32-5.16-6.49-1.31-1.64-2.61-3.29-3.92-4.94-.19-.24-.39-.46-.61-.72-.28.23-.2.5-.2.74v10.84c0,.24,0,.47-.02.71-.01.28-.17.43-.45.45-.14,0-.28.02-.42.02h-5.88c-.82,0-.88-.06-.88-.9V28.24c0-.82.4-1.23,1.2-1.23h5.31c.21,0,.43,0,.64.02.31.02.48.17.49.49,0,.28.01.57.01.85v20.62c0,.3.02.59.03.89.05.02.1.03.15.05.15-.16.32-.31.46-.49,3-3.79,6.01-7.58,9-11.39.4-.51.82-.74,1.48-.74,2.67.03,5.34.01,8.01.02.25,0,.51.02.91.05-.19.29-.3.48-.44.65-3.06,3.5-6.13,6.99-9.2,10.48-1.03,1.17-2.06,2.34-3.08,3.51-.14.16-.24.34-.41.58,1.19,1.34,2.37,2.66,3.57,4.01v-.03Z"/>
  <path class="uuid-58e6156a-97f0-4deb-9397-7f18b8b427fc" d="M403.9,56.32v-27.92c0-.31,0-.61.02-.92,0-.28.17-.43.44-.45.16-.02.33-.02.5-.02h5.74c.9,0,.96.06.96.98v20.9c0,.32.02.64.03.95l.15.04c.15-.17.31-.33.45-.51,3.02-3.81,6.05-7.61,9.06-11.44.36-.46.74-.65,1.31-.64,2.74.02,5.48,0,8.22.01.23,0,.46.03.84.05-.23.3-.37.5-.53.69-4.04,4.62-8.09,9.23-12.14,13.85-.54.61-.54.66.02,1.29,4,4.49,8.01,8.99,12.01,13.49.24.27.48.55.82.95-.4.03-.62.06-.85.06-2.74,0-5.48-.02-8.22.02-.62,0-1-.22-1.37-.69-3.03-3.83-6.08-7.65-9.13-11.47-.15-.19-.33-.37-.49-.56-.05.02-.1.04-.15.05-.01.27-.03.54-.03.82v10.7q0,1.13-1.15,1.13h-5.89c-.52-.04-.59-.1-.62-.65-.01-.24,0-.47,0-.71v-9.99h0Z"/>
  <path class="uuid-58e6156a-97f0-4deb-9397-7f18b8b427fc" d="M304.19,59.47c.14-.19.29-.33.36-.5.29-.74.85-.86,1.58-.85,2.03.04,4.06.01,6.09.02.3,0,.59.05.98.08-.1.37-.14.68-.25.95-2.02,4.84-5.6,7.8-10.76,8.74-3.18.58-6.31.3-9.32-.92-4.61-1.88-7.38-5.36-8.53-10.15-.73-3.03-.72-6.1.08-9.12,1.56-5.89,5.36-9.46,11.34-10.64,2.77-.55,5.55-.44,8.27.38,4.16,1.25,7.14,3.85,8.84,7.87,1.15,2.71,1.41,5.56,1.12,8.47-.09.9-.15.93-1.06.93h-20.26c-.28,0-.56.03-.91.06-.01.27-.06.5-.03.72.71,4.76,4.55,6.66,8.16,6.24,1.73-.2,3.16-.9,4.3-2.28M303.79,49.63h1.56c.68-.01.81-.15.74-.79-.14-1.2-.58-2.28-1.35-3.22-2.35-2.84-6.42-3.05-8.93-1.92-2.1.94-3.34,2.62-3.89,4.84-.26,1.05-.23,1.1.83,1.1h11.05,0Z"/>
  <path class="uuid-58e6156a-97f0-4deb-9397-7f18b8b427fc" d="M508.13,38.07c1.8-.79,3.65-1.16,5.54-1.27,2.85-.17,5.6.24,8.2,1.48,3.79,1.82,6.16,4.82,7.29,8.83.63,2.23.78,4.51.5,6.81-.09.77-.15.82-.94.82h-20.12c-1.34,0-1.38.03-1.08,1.37.55,2.43,1.88,4.28,4.26,5.19,2.07.79,4.16.76,6.18-.23,1.02-.5,1.8-1.3,2.37-2.27.29-.5.65-.66,1.2-.65,2.15.02,4.3,0,6.45.01.27,0,.55.05.91.08-.09.35-.13.63-.23.88-1.64,4.06-4.5,6.86-8.67,8.27-1.39.47-2.83.68-4.31.75-2.37.1-4.67-.17-6.87-1.03-4.41-1.73-7.29-4.9-8.57-9.44-1.2-4.25-1.02-8.47.75-12.54,1.42-3.26,3.82-5.58,7.11-7.04M514.55,43.06c-.14.01-.28.04-.42.04-1.95.05-3.57.8-4.88,2.24-.95,1.04-1.48,2.29-1.75,3.66-.09.49,0,.59.49.63h12.96c.78,0,.91-.18.8-.93-.34-2.36-1.7-3.93-3.79-4.95-1.04-.51-2.17-.64-3.43-.69h.02Z"/>
  <path class="uuid-58e6156a-97f0-4deb-9397-7f18b8b427fc" d="M462.1,42.51c2.74,3.6,3.55,7.64,3.1,12.01-.32,3.09-1.44,5.85-3.45,8.23-2.43,2.9-5.58,4.53-9.26,5.15-2.88.49-5.74.33-8.52-.64-4.57-1.59-7.63-4.72-9.1-9.31-1.17-3.64-1.17-7.35.03-11,1.4-4.23,4.18-7.27,8.32-8.91,5.02-1.99,9.98-1.74,14.75.89,1.61.89,2.96,2.1,4.13,3.58M457.01,49.11c-.47-1.55-1.27-2.87-2.53-3.93-3.62-3.03-9.96-2.16-11.93,3.05-1.09,2.88-1.02,5.84.08,8.72.74,1.95,2.15,3.35,4.12,4.03,4.21,1.46,8.82-.45,10.22-5.19.64-2.18.55-4.38.04-6.7v.02Z"/>
  <path class="uuid-58e6156a-97f0-4deb-9397-7f18b8b427fc" d="M221.09,67.68h-3.19c-.82,0-1.23-.42-1.23-1.26,0-4.94,0-9.87,0-14.81,0-1.01-.1-2.03-.27-3.02-.55-3.17-3.03-5.12-6-5.2-1.49-.04-2.93.1-4.23.88-1.89,1.13-2.79,2.89-3.04,5.01-.09.79-.13,1.6-.13,2.4,0,4.94,0,9.87,0,14.81,0,.79-.41,1.19-1.22,1.19h-5.38c-.21,0-.44.03-.63-.04-.15-.05-.32-.21-.37-.35-.07-.22-.05-.47-.05-.7v-28.55c.03-.62.1-.71.7-.72,2.08-.01,4.16-.01,6.23,0,.61,0,.69.09.71.7.02.66,0,1.32,0,1.98,0,.22.03.45.06.8.24-.17.37-.24.48-.35,2.07-2.2,4.64-3.34,7.63-3.58,1.86-.14,3.69,0,5.44.63,3.84,1.36,6.19,4.1,7.22,8.01.37,1.42.51,2.89.52,4.35.02,5.57,0,11.15,0,16.72v.21c-.02.83-.06.87-.9.88h-2.35Z"/>
  <path class="uuid-58e6156a-97f0-4deb-9397-7f18b8b427fc" d="M537.15,67.68h-1.06c-.56-.03-.63-.1-.66-.68-.01-.19,0-.38,0-.57v-27.85c0-1.33-.04-1.26,1.3-1.26h5.67c.57.03.66.11.68.67.02.64,0,1.28.01,1.91,0,.25.02.51.04.9.24-.17.4-.25.51-.37,2.08-2.19,4.65-3.33,7.65-3.54,2.35-.16,4.62.15,6.75,1.2,2.96,1.47,4.83,3.87,5.74,7.02.43,1.48.61,3.01.61,4.55v16.87q0,1.16-1.19,1.16h-5.31q-1.15,0-1.15-1.13v-15.31c0-1.09-.08-2.17-.37-3.23-.74-2.75-2.9-4.48-5.75-4.62-1.19-.06-2.36,0-3.48.45-2.25.9-3.45,2.64-3.85,4.96-.13.76-.19,1.55-.19,2.32-.02,5.13,0,10.25,0,15.38,0,.78-.39,1.17-1.18,1.17h-4.77Z"/>
  <path class="uuid-58e6156a-97f0-4deb-9397-7f18b8b427fc" d="M390.15,59.49c.09-1.48-.28-2.23-1.64-2.78-1.51-.61-3.06-1.11-4.63-1.55-1.93-.55-3.89-.99-5.74-1.78-1.48-.63-2.74-1.57-3.74-2.83-.88-1.11-1.25-2.43-1.35-3.82-.25-3.72,1.4-6.41,4.56-8.23,2.05-1.18,4.31-1.63,6.65-1.72,1.78-.06,3.54.07,5.26.56,2.83.8,5.05,2.39,6.51,4.98.66,1.17.99,2.45,1.17,3.77.07.53-.07.7-.61.7-2.01.01-4.01,0-6.02,0-.38,0-.62-.12-.71-.52-.5-2.06-1.93-3.05-3.93-3.34-1.18-.17-2.36-.11-3.5.28-1.33.45-1.96,1.38-1.91,2.72.04,1.04.6,1.75,1.48,2.15.94.43,1.92.8,2.91,1.1,1.98.61,4,1.13,5.98,1.75,1.43.44,2.74,1.12,3.92,2.07,3.34,2.69,3.34,7.55,1.53,10.35-1.06,1.65-2.54,2.77-4.29,3.57-1.43.65-2.95.99-4.51,1.15-2.35.23-4.67.09-6.93-.61-2.51-.78-4.7-2.08-6.33-4.2-1-1.3-1.65-2.75-1.88-4.37-.1-.69,0-.84.66-.84,2.1-.01,4.2,0,6.31,0,.39,0,.65.1.78.54.68,2.27,2.41,3.23,4.59,3.51,1.13.14,2.27.06,3.35-.37,1.02-.4,1.79-1.04,2.07-2.22v-.02Z"/>
  <path class="uuid-58e6156a-97f0-4deb-9397-7f18b8b427fc" d="M274.94,54.9c-1.39,3.75-2.76,7.45-4.13,11.14-.12.33-.28.65-.37,1-.13.51-.45.65-.94.64-2.08-.02-4.16,0-6.24,0h-1.49c-.87,0-.88,0-1.18-.8-.58-1.55-1.15-3.1-1.72-4.65-2.28-6.18-4.55-12.36-6.83-18.54-.68-1.84-1.36-3.68-2.03-5.52-.08-.22-.13-.44-.23-.76.29-.04.51-.09.73-.09h6.66c.72,0,.74.03.99.76.92,2.76,1.82,5.51,2.73,8.27,1.35,4.1,2.71,8.21,4.06,12.31.18.53.35,1.07.55,1.67.38-.27.4-.62.49-.91,1.05-3.18,2.1-6.37,3.14-9.56,1.27-3.86,2.54-7.72,3.81-11.57.32-.98.33-.98,1.32-.98h6.02c.3,0,.6.04,1.01.07-.09.36-.14.65-.24.92-.96,2.62-1.93,5.23-2.89,7.84-1.07,2.9-2.15,5.8-3.24,8.75h.02Z"/>
  <path class="uuid-58e6156a-97f0-4deb-9397-7f18b8b427fc" d="M247.33,40.3v2.41c0,.75-.07.82-.81.82-1.61.01-3.21,0-4.82,0-.78,0-1.17.4-1.17,1.19v13.04c0,.45.04.9.1,1.34.17,1.13.72,1.73,1.85,1.95.64.13,1.31.17,1.97.19.73.03,1.46,0,2.2.02.58.02.67.09.67.66,0,1.7,0,3.4,0,5.1,0,.53-.1.64-.63.63-2.15-.01-4.3.13-6.44-.15-1.11-.15-2.18-.43-3.18-.93-1.98-.99-3.19-2.6-3.78-4.71-.33-1.17-.46-2.36-.46-3.57v-13.39c0-1.51.02-1.36-1.41-1.37-.52,0-1.04.01-1.56,0-.54-.02-.66-.13-.67-.69,0-1.61,0-3.21,0-4.82,0-.62.1-.7.7-.72.64-.02,1.28,0,1.91,0,.99,0,1.02-.03,1.02-1.06v-5.74c.02-.73.08-.8.83-.81h6.02c.77,0,.84.07.84.87v6.03c.03.6.12.7.72.71,1.56.01,3.12,0,4.68,0s1.4-.1,1.4,1.44v1.56h.02Z"/>
  <path class="uuid-58e6156a-97f0-4deb-9397-7f18b8b427fc" d="M493.94,61.28v5.6c-.02.73-.08.78-.83.8h-5.88c-.14,0-.28,0-.42-.01-.44-.05-.5-.11-.55-.58-.01-.16-.01-.33-.01-.5V28.06c0-1.04.02-1.06,1.08-1.06h5.52c.21,0,.43,0,.64.02.27.03.43.19.43.47,0,.31.02.61.02.92v32.87h0Z"/>
  <path class="uuid-58e6156a-97f0-4deb-9397-7f18b8b427fc" d="M478.64,35.62v30.74c0,1.39.07,1.31-1.31,1.32h-5.17c-.21,0-.42,0-.64-.01-.35,0-.51-.19-.52-.53,0-.21-.01-.42-.01-.64V28.19c0-.79.39-1.18,1.18-1.18h5.38c.21,0,.43,0,.64.02.27.02.43.18.44.46,0,.24.02.47.02.71v7.44-.02Z"/>
  <path class="uuid-58e6156a-97f0-4deb-9397-7f18b8b427fc" d="M336.72,41.58v2.05c0,1.22,0,1.19-1.2,1.24-1.13.05-2.26.12-3.38.3-1.39.23-2.59.87-3.46,2.03-.55.73-.89,1.57-1.02,2.46-.15,1.02-.28,2.06-.29,3.09-.03,4.58-.01,9.16-.01,13.74,0,.79-.39,1.18-1.17,1.18h-5.38c-.24,0-.48.02-.7-.04-.15-.04-.31-.21-.36-.35-.07-.22-.04-.47-.04-.7v-28.19c0-1.07,0-1.08,1.05-1.08h5.74c.79,0,.85.07.86.85.01.92,0,1.84,0,2.76,0,.23.02.46.05.85.23-.26.37-.4.49-.56,2.05-2.7,4.73-4.2,8.14-4.35.57-.03.67.03.67.61.01,1.35,0,2.69,0,4.11h.01Z"/>
  <path class="uuid-58e6156a-97f0-4deb-9397-7f18b8b427fc" d="M46.36,55.72c0-.87,0-1.67,0-2.48,0-.93-.36-1.67-1.06-2.29-5.15-4.51-10.29-9.03-15.44-13.53-.4-.35-.57-.71-.55-1.22.03-.73,0-1.46,0-2.2,0-.91.04-.93.98-.94h37.54c1.42,0,1.34-.08,1.34,1.36,0,.59-.03,1.18,0,1.77.03.53-.18.89-.57,1.22-1.69,1.44-3.37,2.89-5.05,4.33-3.53,3.03-7.06,6.06-10.6,9.07-.85.72-1.25,1.56-1.24,2.71.04,5.55.02,11.1.02,16.65,0,.26,0,.52,0,.78,0,.32-.12.55-.4.69-1.43.72-2.87,1.44-4.31,2.15-.05.03-.14,0-.29,0-.03-.26-.09-.53-.09-.8-.02-1.18-.03-2.36-.04-3.54-.03-2.48-.07-4.96-.1-7.43-.02-1.7-.03-3.4-.05-5.1,0-.38-.06-.75-.09-1.2h0Z"/>
</svg>